#!OML:ASF I:\Actors\actors\Patient Classification 2\Patient 1\Session 1\actor1.ASF
:FULLY-SPECIFIED
:DEGREES
86
root -0.657414 18.6899 5.62769 2.11807 -2.55134 0.241549
lowerback 3.92017 0.759338 -2.53777
upperback -2.44596 0.866192 0.0820502
thorax -4.76895 0.513594 1.43872
lowerneck -14.6494 -2.23495 -1.13265
upperneck 20.1299 -3.53186 3.08383
head 8.78747 -1.42204 0.814251
rclavicle -1.94592e-015 -6.95746e-015
rhumerus -54.009 4.2164 -90.1064
rradius 54.9621
rwrist -10.4036
rhand -1.9138 -43.5217
rfingers 7.12502
rthumb 23.7561 -72.0732
lclavicle -1.94592e-015 -6.95746e-015
lhumerus -41.311 -11.6578 93.6382
lradius 47.4863
lwrist 17.4791
lhand -2.2075 -18.4701
lfingers 7.12502
lthumb 23.4744 10.1178
rfemur 0 0 0
rtibia 0
rfoot 0 0
rtoes 0
lfemur -3.66104 -7.74225 -14.6201
ltibia 19.3851
lfoot -22.8109 15.3071
ltoes -55.3752
87
root -0.661179 18.6902 5.61437 2.07029 -2.48224 0.281481
lowerback 4.27387 0.695414 -2.57927
upperback -2.39901 0.767476 0.0600687
thorax -4.91719 0.466773 1.44391
lowerneck -14.8328 -2.27906 -1.24886
upperneck 20.2053 -3.58628 3.16809
head 8.85201 -1.44461 0.853756
rclavicle 1.60115e-015 1.47101e-014
rhumerus -54.3879 4.47528 -90.403
rradius 56.3799
rwrist -13.2302
rhand -2.0484 -43.854
rfingers 7.12502
rthumb 23.627 -72.4223
lclavicle 1.60115e-015 1.47101e-014
lhumerus -41.345 -10.9724 93.2968
lradius 49.267
lwrist 20.5956
lhand -2.90665 -17.8938
lfingers 7.12502
lthumb 22.8036 10.7783
rfemur 0 0 0
rtibia 0
rfoot 0 0
rtoes 0
lfemur -3.69369 -7.44273 -14.6004
ltibia 19.3969
lfoot -22.6472 14.9941
ltoes -55.511
88
root -0.66411 18.6907 5.60125 2.00735 -2.4154 0.364229
lowerback 4.66902 0.617492 -2.61469
upperback -2.34643 0.646371 -0.0146052
thorax -5.08142 0.407909 1.39366
lowerneck -14.9048 -2.23635 -1.32178
upperneck 20.1517 -3.54339 3.32914
head 8.85047 -1.41268 0.924972
rclavicle -3.99588e-015 9.24349e-015
rhumerus -54.7391 4.66342 -90.7646
rradius 57.762
rwrist -16.1581
rhand -1.31222 -44.926
rfingers 7.12502
rthumb 24.3329 -73.4014
lclavicle -3.99588e-015 9.24349e-015
lhumerus -41.349 -10.2474 92.8922
lradius 51.0636
lwrist 24.1157
lhand -4.11023 -17.5133
lfingers 7.12502
lthumb 21.6481 11.2965
rfemur 0 0 0
rtibia 0
rfoot 0 0
rtoes 0
lfemur -3.69526 -7.19668 -14.6466
ltibia 19.4031
lfoot -22.4905 14.7264
ltoes -55.5649
89
root -0.665268 18.6908 5.58784 1.91595 -2.36901 0.427471
lowerback 5.08218 0.544662 -2.56992
upperback -2.24896 0.534931 -0.139783
thorax -5.20802 0.349379 1.24631
lowerneck -14.9997 -2.17767 -1.2476
upperneck 20.0181 -3.49583 3.42293
head 8.82165 -1.37517 0.949209
rclavicle 2.90723e-015 -1.53064e-014
rhumerus -55.0516 4.71634 -91.2051
rradius 59.1328
rwrist -19.2275
rhand -0.670199 -46.5325
rfingers 7.12502
rthumb 24.9483 -74.9239
lclavicle 2.90723e-015 -1.53064e-014
lhumerus -41.1632 -9.50105 92.42
lradius 52.6523
lwrist 27.749
lhand -5.66526 -17.3685
lfingers 7.12502
lthumb 20.1541 11.6061
rfemur 0 0 0
rtibia 0
rfoot 0 0
rtoes 0
lfemur -3.65194 -6.99883 -14.6904
ltibia 19.3961
lfoot -22.3815 14.5344
ltoes -55.6176
90
root -0.666616 18.6911 5.5713 1.83024 -2.31434 0.465184
lowerback 5.46127 0.467334 -2.53176
upperback -2.09582 0.419239 -0.259339
thorax -5.2575 0.287768 1.11036
lowerneck -14.9495 -2.05307 -1.12385
upperneck 19.6861 -3.36698 3.543
head 8.69623 -1.29727 0.984775
rclavicle 6.42841e-015 3.97569e-015
rhumerus -55.2102 4.62371 -91.549
rradius 60.333
rwrist -21.9886
rhand -0.326527 -47.463
rfingers 7.12502
rthumb 25.2776 -75.8083
lclavicle 6.42841e-015 3.97569e-015
lhumerus -40.7806 -8.7573 92.0069
lradius 53.9759
lwrist 31.4086
lhand -7.56076 -17.3373
lfingers 7.12502
lthumb 18.3314 11.8189
rfemur 0 0 0
rtibia 0
rfoot 0 0
rtoes 0
lfemur -3.62825 -6.7594 -14.6927
ltibia 19.3787
lfoot -22.2344 14.2953
ltoes -55.6576
91
root -0.669546 18.6914 5.55041 1.7526 -2.16173 0.571313
lowerback 5.8808 0.345215 -2.62209
upperback -1.93744 0.233592 -0.355458
thorax -5.32359 0.196543 1.07883
lowerneck -14.7976 -1.91904 -1.12899
upperneck 19.3024 -3.19838 3.69615
head 8.53685 -1.209 1.05772
rclavicle -1.03213e-014 1.76918e-014
rhumerus -55.2923 4.45308 -91.6967
rradius 61.3792
rwrist -23.9228
rhand 0.296601 -47.871
rfingers 7.12502
rthumb 25.8744 -76.1306
lclavicle -1.03213e-014 1.76918e-014
lhumerus -40.2881 -8.10531 91.7605
lradius 55.0608
lwrist 35.1302
lhand -9.68721 -17.3227
lfingers 7.12502
lthumb 16.2848 12.0135
rfemur 0 0 0
rtibia 0
rfoot 0 0
rtoes 0
lfemur -3.66372 -6.48716 -14.742
ltibia 19.3711
lfoot -21.9805 13.9452
ltoes -55.7264
92
root -0.674703 18.6922 5.52541 1.66987 -1.95272 0.661683
lowerback 6.39033 0.193189 -2.72386
upperback -1.78576 0.00441376 -0.424454
thorax -5.44622 0.0855313 1.08818
lowerneck -14.8549 -1.90773 -1.27506
upperneck 19.193 -3.16328 3.78916
head 8.51314 -1.19428 1.11674
rclavicle -2.74571e-015 -2.0276e-014
rhumerus -55.3395 4.35419 -91.8571
rradius 62.2877
rwrist -25.9876
rhand -0.527037 -47.2905
rfingers 7.12502
rthumb 25.0855 -75.6628
lclavicle -2.74571e-015 -2.0276e-014
lhumerus -39.5852 -7.48948 91.6373
lradius 55.7225
lwrist 38.6587
lhand -11.7294 -17.3604
lfingers 7.12502
lthumb 14.3178 12.1259
rfemur 0 0 0
rtibia 0
rfoot 0 0
rtoes 0
lfemur -3.74117 -6.1096 -14.7451
ltibia 19.3804
lfoot -21.6267 13.4963
ltoes -55.8549
93
root -0.679119 18.6932 5.50045 1.58586 -1.77739 0.686919
lowerback 6.88364 0.0507185 -2.72564
upperback -1.60254 -0.203518 -0.503879
thorax -5.52692 -0.0191048 1.03064
lowerneck -15.0561 -1.89304 -1.48882
upperneck 19.2128 -3.13253 3.97881
head 8.56209 -1.17296 1.21852
rclavicle -1.17842e-014 -2.44505e-014
rhumerus -55.3007 4.47414 -92.2213
rradius 62.9722
rwrist -29.1873
rhand 0.303155 -50.1948
rfingers 7.12502
rthumb 25.8807 -78.4536
lclavicle -1.17842e-014 -2.44505e-014
lhumerus -38.6745 -7.02505 91.5924
lradius 55.9552
lwrist 41.91
lhand -13.518 -17.1348
lfingers 7.12502
lthumb 12.5938 12.4656
rfemur 0 0 0
rtibia 0
rfoot 0 0
rtoes 0
lfemur -3.81904 -5.70829 -14.6902
ltibia 19.4065
lfoot -21.2684 13.0868
ltoes -55.9943
94
root -0.681927 18.6927 5.47686 1.46785 -1.64449 0.724684
lowerback 7.39117 -0.0828468 -2.69535
upperback -1.39592 -0.399385 -0.633582
thorax -5.59232 -0.119909 0.903403
lowerneck -15.1932 -1.7869 -1.70682
upperneck 19.1894 -3.0016 4.30427
head 8.58381 -1.09177 1.37935
rclavicle 5.08143e-015 -1.35174e-014
rhumerus -55.2264 4.70427 -92.6449
rradius 63.4296
rwrist -32.3891
rhand -1.72916 -50.4963
rfingers 7.12502
rthumb 23.9331 -79.0248
lclavicle 5.08143e-015 -1.35174e-014
lhumerus -37.6184 -6.818 91.5975
lradius 55.7865
lwrist 45.1872
lhand -15.1725 -16.5451
lfingers 7.12502
lthumb 10.9983 13.1468
rfemur 0 0 0
rtibia 0
rfoot 0 0
rtoes 0
lfemur -3.85668 -5.35313 -14.6771
ltibia 19.4612
lfoot -20.9472 12.7303
ltoes -56.1252
95
root -0.68393 18.6915 5.45298 1.31719 -1.56626 0.739923
lowerback 7.95378 -0.196022 -2.60003
upperback -1.19051 -0.565383 -0.797989
thorax -5.69285 -0.207993 0.701958
lowerneck -15.2712 -1.68246 -1.78463
upperneck 19.1968 -2.88168 4.50558
head 8.60086 -1.01886 1.47437
rclavicle -1.44119e-015 -2.26615e-014
rhumerus -55.2361 4.92104 -93.041
rradius 63.7834
rwrist -35.0644
rhand -5.23296 -49.3309
rfingers 7.12502
rthumb 20.5696 -78.2611
lclavicle -1.44119e-015 -2.26615e-014
lhumerus -36.3993 -6.77741 91.6728
lradius 55.1109
lwrist 48.5904
lhand -16.7165 -15.9265
lfingers 7.12502
lthumb 9.50891 13.839
rfemur 0 0 0
rtibia 0
rfoot 0 0
rtoes 0
lfemur -3.85844 -5.03037 -14.6532
ltibia 19.5386
lfoot -20.6721 12.4308
ltoes -56.2831
96
root -0.685148 18.6906 5.42738 1.17885 -1.50402 0.733439
lowerback 8.51299 -0.302509 -2.49084
upperback -0.970071 -0.719811 -0.961808
thorax -5.77714 -0.290831 0.493402
lowerneck -15.3761 -1.50125 -1.4738
upperneck 19.2603 -2.65042 4.23834
head 8.62536 -0.913067 1.35988
rclavicle -1.82633e-014 1.74931e-014
rhumerus -55.3134 5.26185 -93.4631
rradius 64.161
rwrist -37.677
rhand -8.22334 -49.2561
rfingers 7.12502
rthumb 17.6939 -78.471
lclavicle -1.82633e-014 1.74931e-014
lhumerus -35.0026 -6.83828 91.8939
lradius 53.9238
lwrist 51.947
lhand -18.2227 -15.6057
lfingers 7.12502
lthumb 8.05543 14.2208
rfemur 0 0 0
rtibia 0
rfoot 0 0
rtoes 0
lfemur -3.86484 -4.82039 -14.6201
ltibia 19.6074
lfoot -20.4739 12.2761
ltoes -56.4672
97
root -0.687709 18.69 5.40083 1.03043 -1.4313 0.708053
lowerback 9.08966 -0.424647 -2.44441
upperback -0.721978 -0.899476 -1.09941
thorax -5.84127 -0.383729 0.352545
lowerneck -15.5511 -1.21241 -0.980425
upperneck 19.4011 -2.27096 3.75411
head 8.6813 -0.745424 1.15968
rclavicle -4.96962e-017 2.50469e-014
rhumerus -55.4084 5.72815 -93.8558
rradius 64.5274
rwrist -39.998
rhand -10.276 -50.5231
rfingers 7.12502
rthumb 15.7179 -79.9048
lclavicle -4.96962e-017 2.50469e-014
lhumerus -33.6296 -7.13225 92.2946
lradius 52.564
lwrist 55.1907
lhand -19.9663 -15.648
lfingers 7.12502
lthumb 6.3723 14.2361
rfemur 0 0 0
rtibia 0
rfoot 0 0
rtoes 0
lfemur -3.83508 -4.77079 -14.5743
ltibia 19.6452
lfoot -20.3423 12.2044
ltoes -56.4916
98
root -0.691505 18.6896 5.37434 0.867957 -1.48462 0.69866
lowerback 9.74888 -0.500454 -2.44423
upperback -0.497774 -1.02681 -1.25048
thorax -5.97831 -0.448433 0.21881
lowerneck -15.7968 -1.04963 -0.945658
upperneck 19.6187 -2.09247 3.88786
head 8.79691 -0.6394 1.22163
rclavicle 1.0461e-014 7.95139e-015
rhumerus -55.7061 6.17096 -94.1089
rradius 64.9835
rwrist -41.9715
rhand -11.7246 -51.4648
rfingers 7.12502
rthumb 14.3224 -80.9508
lclavicle 1.0461e-014 7.95139e-015
lhumerus -32.5396 -7.80825 92.8689
lradius 51.3889
lwrist 58.2979
lhand -21.9972 -15.3995
lfingers 7.12502
lthumb 4.41148 14.5346
rfemur 0 0 0
rtibia 0
rfoot 0 0
rtoes 0
lfemur -3.77575 -4.71881 -14.5466
ltibia 19.7082
lfoot -20.3027 12.1584
ltoes -56.3386
99
root -0.694914 18.6898 5.34596 0.740145 -1.79433 0.762277
lowerback 10.4573 -0.492707 -2.56218
upperback -0.306189 -1.06277 -1.43386
thorax -6.17778 -0.464082 0.105475
lowerneck -16.093 -0.960211 -1.11037
upperneck 19.8741 -2.02849 4.2932
head 8.94328 -0.571687 1.39664
rclavicle -3.926e-015 1.59028e-014
rhumerus -56.346 6.77221 -94.3283
rradius 65.7886
rwrist -43.9367
rhand -12.8123 -51.4947
rfingers 7.12502
rthumb 13.2741 -81.052
lclavicle -3.926e-015 1.59028e-014
lhumerus -31.79 -8.71533 93.5702
lradius 50.7602
lwrist 61.5484
lhand -24.5266 -15.0907
lfingers 7.12502
lthumb 1.96879 14.8799
rfemur 0 0 0
rtibia 0
rfoot 0 0
rtoes 0
lfemur -3.7047 -4.63765 -14.6203
ltibia 19.7573
lfoot -20.3803 12.335
ltoes -56.2622
100
root -0.697827 18.691 5.3379 0.821871 -1.7825 0.49056
lowerback 10.6794 -0.666428 -2.38586
upperback -0.0729967 -1.27929 -1.52764
thorax -6.05834 -0.57967 -0.0564843
lowerneck -16.3162 -0.698492 -0.743052
upperneck 20.0494 -1.7262 4.107
head 9.03079 -0.417717 1.31078
rclavicle -4.72114e-015 1.82882e-014
rhumerus -57.3442 7.73619 -94.7315
rradius 67.0726
rwrist -45.7553
rhand -13.9261 -51.4935
rfingers 7.12502
rthumb 12.2004 -81.1177
lclavicle -4.72114e-015 1.82882e-014
lhumerus -31.4357 -9.68474 94.3329
lradius 50.9308
lwrist 65.0916
lhand -27.6026 -15.9675
lfingers 7.12502
lthumb -1.00207 14.0099
rfemur 0 0 0
rtibia 0
rfoot 0 0
rtoes 0
lfemur -3.83432 -4.46344 -14.2825
ltibia 19.7971
lfoot -20.2828 12.2132
ltoes -56.3984
